# xmcd
#
# Track frame offsets:
#	150
#	13762
#	26120
#	39307
#	51717
#	63952
#	78102
#	90847
#	103205
#	115370
#	128572
#	136222
#	148410
#	161037
#	174750
#	188007
#	199655
#	213690
#	235567
#	251067
#	264762
#	278872
#
# Disc length: 3929
#
# Revision: 4
# Processed by: cddbd v1.5.1PL0 Copyright (c) Steve Scherf et al.
# Submitted via: audiograbber 1.82.02
# Normalized: r3:DSETVAR1
#
DISCID=330f5716
DTITLE=Various Artist - Mean Old World-The Blues (1940-1994) [Volume 2]
DYEAR=1996
DGENRE=Blues
TTITLE0=Muddy Waters - Rollin And Tumblin (Part 10)
TTITLE1=Memphis Slim And The Houserockers - Mother Earth
TTITLE2=Percy Mayfield - Please Send Me Someone To Love
TTITLE3=Elmore James - Dust My Broom ( I Believe My Time Ain't Long)
TTITLE4=Howlin' Wolf - How Many More Years
TTITLE5=Big Bill Broonzy - Black, Brown And White
TTITLE6=Jackie Brenston And His Delta Cats - Rocket "88"
TTITLE7=Little Walker And His Night Cats - Juke
TTITLE8=Eddie Boyd - Five Long Years
TTITLE9=Little Walter And His Night Cats - Mean Old World
TTITLE10=Big Mamma Thornton - I Smell A Rat
TTITLE11=Big Maybelle - Gabbin' Blues
TTITLE12=Muddy Waters - (I'm Your) Hoochie Coochie Man
TTITLE13=Guitar Slim And His Band - The Things that I Used to do
TTITLE14=J. B. Lenoir - Eisenhower Blues
TTITLE15=Gatemouth Brown With The Pluma Davis Orchestra - Okie Dokie Stomp
TTITLE16=Ray Charles And His Orchestra - Come Back Baby
TTITLE17=Jimmy Rushing - How Long, How Long Blues
TTITLE18=Joe Turner And His All-Stars - Cherry Red
TTITLE19=Jesse Fuller - San Fransisco Bay Blues
TTITLE20=Otis Rush - I Can't Quit You Baby
TTITLE21=Johnny "Guitar" Watson - Three Hours Past Midnight
EXTD=
EXTT0=
EXTT1=
EXTT2=
EXTT3=
EXTT4=
EXTT5=
EXTT6=
EXTT7=
EXTT8=
EXTT9=
EXTT10=
EXTT11=
EXTT12=
EXTT13=
EXTT14=
EXTT15=
EXTT16=
EXTT17=
EXTT18=
EXTT19=
EXTT20=
EXTT21=
PLAYORDER=
